<?xml version="1.0" encoding="UTF-8"?>
<svg id="Capa_1" data-name="Capa 1" xmlns="http://www.w3.org/2000/svg" xmlns:xlink="http://www.w3.org/1999/xlink" viewBox="0 0 16 16">
  <defs>
    <style>
      .cls-1 {
        fill: none;
        stroke: #8e8e8e;
        stroke-miterlimit: 10;
        stroke-width: .04px;
      }

      .cls-2 {
        fill: #fff;
      }

      .cls-3 {
        fill: #371b44;
        opacity: .3;
      }

      .cls-4 {
        fill: url(#Degradado_sin_nombre_52);
      }

      .cls-5 {
        opacity: .04;
      }

      .cls-6 {
        fill: #a0a0a0;
        opacity: .18;
      }

      .cls-7 {
        fill: #353535;
        opacity: .22;
      }

      .cls-8 {
        fill: #878787;
      }

      .cls-9 {
        fill: #1712d6;
      }

      .cls-10 {
        fill: #19191c;
      }
    </style>
    <linearGradient id="Degradado_sin_nombre_52" data-name="Degradado sin nombre 52" x1="5.28" y1="9.77" x2="16.99" y2="4.89" gradientUnits="userSpaceOnUse">
      <stop offset=".07" stop-color="#fff"/>
      <stop offset=".64" stop-color="#e8e8e8"/>
      <stop offset=".69" stop-color="#e6e6e6"/>
    </linearGradient>
  </defs>
  <polygon class="cls-3" points="15.06 1.69 .63 5.26 8.69 7.44 9.71 15.73 15.06 1.69"/>
  <polygon class="cls-4" points="15.37 .89 10.05 14.88 9.03 6.62 1 4.45 6.29 3.14 6.73 3.03 11.77 1.79 11.95 1.74 12.26 1.67 12.4 1.63 15.37 .89"/>
  <path class="cls-7" d="m6.88,4.61c.03.11-.04.23-.15.26-.11.03-.23-.04-.26-.15l-.11-.43c-.1-.39-.12-.78-.07-1.14l.45-.11c-.07.36-.06.75.04,1.15l.11.43Z"/>
  <path class="cls-2" d="m7.31,4.39c.06.27-.12.54-.39.59s-.54-.12-.59-.39.12-.54.39-.59.54.12.59.39Z"/>
  <path class="cls-1" d="m7.21,4.41c.04.22-.1.43-.32.48s-.43-.1-.48-.32.1-.43.32-.48.43.1.48.32Z"/>
  <path class="cls-7" d="m12.81,3.35c-.12.04-.24-.02-.29-.14l-.16-.44c-.14-.39-.34-.72-.59-.99l.18-.04.31-.08c.22.27.39.59.52.95l.16.44c.04.12-.02.25-.13.29Z"/>
  <path class="cls-2" d="m13.45,3.14c.06.27-.12.54-.39.59s-.54-.12-.59-.39.12-.54.39-.59.54.12.59.39Z"/>
  <path class="cls-1" d="m13.35,3.16c.04.21-.09.42-.31.46s-.42-.09-.46-.31.09-.42.31-.46.42.09.46.31Z"/>
  <path class="cls-8" d="m13,3.39c-.11.02-.23-.05-.25-.17l-.09-.43c-.32-1.58-1.82-2.35-3.4-2.03s-2.66,1.61-2.34,3.19l.09.43c.02.11-.05.23-.17.25s-.23-.05-.25-.17l-.09-.43c-.37-1.81.86-3.32,2.67-3.69s3.53.55,3.9,2.36l.09.43c.02.11-.05.23-.17.25Z"/>
  <polygon class="cls-6" points="9.04 6.67 9.91 13.72 9.17 6.67 9.04 6.67"/>
  <polygon class="cls-6" points="9.08 6.5 2.18 4.79 9.03 6.62 9.08 6.5"/>
  <g class="cls-5">
    <line class="cls-9" x1="12.87" y1="7.21" x2="14.76" y2="2.31"/>
    <path class="cls-10" d="m12.87,7.21c.22-.85.53-1.67.83-2.5.33-.81.65-1.63,1.06-2.41-.22.85-.53,1.67-.83,2.5-.33.81-.65,1.63-1.06,2.41Z"/>
  </g>
</svg>